name rise49.8558peak67.6521fall70.3087.mot
datacolumns 19
datarows 21
range 12.90161400000000 12.93494900000000
endheader
time	ground_force1_vx	ground_force1_vy	ground_force1_vz	ground_force1_px	ground_force1_py	ground_force1_pz	ground_force2_vx	ground_force2_vy	ground_force2_vz	ground_force2_px	ground_force2_py	ground_force2_pz	ground_torque1_x	ground_torque1_y	ground_torque1_z	ground_torque2_x	ground_torque2_y	ground_torque2_z	
12.90161400000000	62.66498900000000	705.17623700000001	53.32927700000000	0.43017500000000	0.00000000000000	0.11399900000000	-3.56444300000000	38.67784000000000	3.54266000000000	0.09597000000000	0.00000000000000	-0.06776000000000	0.00000000000000	30.64185000000000	0.00000000000000	0.00000000000000	0.04280200000000	0.00000000000000	
12.90328700000000	62.19472100000000	709.11988399999996	53.67224500000000	0.42874000000000	0.00000000000000	0.11405100000000	-2.73891600000000	32.31124500000000	3.05938300000000	0.08545600000000	0.00000000000000	-0.06707300000000	0.00000000000000	30.87117700000000	0.00000000000000	0.00000000000000	0.07609200000000	0.00000000000000	
12.90495700000000	61.72129200000000	713.00946599999997	54.02730100000000	0.42733600000000	0.00000000000000	0.11410200000000	-2.01332100000000	26.21423000000000	2.56675400000000	0.07351500000000	0.00000000000000	-0.06634400000000	0.00000000000000	31.11162900000000	0.00000000000000	0.00000000000000	0.09290900000000	0.00000000000000	
12.90662000000000	61.24511300000000	716.84145500000000	54.39373900000000	0.42596600000000	0.00000000000000	0.11415300000000	-1.39139000000000	20.50395900000000	2.07985300000000	0.00000000000000	0.00000000000000	0.00000000000000	0.00000000000000	31.36262100000000	0.00000000000000	0.00000000000000	0.06384100000000	0.00000000000000	
12.90828300000000	60.76655000000000	720.61225899999999	54.77075000000000	0.42462900000000	0.00000000000000	0.11420400000000	-0.87401000000000	15.29021900000000	1.61365700000000	0.00000000000000	0.00000000000000	0.00000000000000	0.00000000000000	31.62349200000000	0.00000000000000	0.00000000000000	0.07813700000000	0.00000000000000	
12.90995400000000	60.28593200000000	724.31823799999995	55.15742400000000	0.42332600000000	0.00000000000000	0.11425500000000	-0.45900500000000	10.66586200000000	1.18190600000000	0.00000000000000	0.00000000000000	0.00000000000000	0.00000000000000	31.89350600000000	0.00000000000000	0.00000000000000	0.08258200000000	0.00000000000000	
12.91161700000000	59.80354800000000	727.95571500000005	55.55275700000000	0.42205700000000	0.00000000000000	0.11430400000000	-0.14116700000000	6.69888800000000	0.79608700000000	0.00000000000000	0.00000000000000	0.00000000000000	0.00000000000000	32.17185800000000	0.00000000000000	0.00000000000000	0.07924800000000	0.00000000000000	
12.91328100000000	59.31964900000000	731.52099499999997	55.95566100000000	0.42082400000000	0.00000000000000	0.11435300000000	0.08746800000000	3.42721000000000	0.46467700000000	0.00000000000000	0.00000000000000	0.00000000000000	0.00000000000000	32.45768300000000	0.00000000000000	0.00000000000000	0.07023800000000	0.00000000000000	
12.91494700000000	58.83445100000000	735.01037899999994	56.36496500000000	0.41962600000000	0.00000000000000	0.11440100000000	0.00000000000000	0.00000000000000	0.00000000000000	0.00000000000000	0.00000000000000	0.00000000000000	0.00000000000000	32.75005500000000	0.00000000000000	0.00000000000000	0.00000000000000	0.00000000000000	
12.91661900000000	58.34813800000000	738.42017599999997	56.77942900000000	0.41846300000000	0.00000000000000	0.11444800000000	0.00000000000000	0.00000000000000	0.00000000000000	0.00000000000000	0.00000000000000	0.00000000000000	0.00000000000000	33.04799900000000	0.00000000000000	0.00000000000000	0.00000000000000	0.00000000000000	
12.91828600000000	57.86086100000000	741.74672299999997	57.19774800000000	0.41733600000000	0.00000000000000	0.11449400000000	0.00000000000000	0.00000000000000	0.00000000000000	0.00000000000000	0.00000000000000	0.00000000000000	0.00000000000000	33.35049300000000	0.00000000000000	0.00000000000000	0.00000000000000	0.00000000000000	
12.91995100000000	57.37274400000000	744.98639900000001	57.61856300000000	0.41624400000000	0.00000000000000	0.11453800000000	0.00000000000000	0.00000000000000	0.00000000000000	0.00000000000000	0.00000000000000	0.00000000000000	0.00000000000000	33.65647700000000	0.00000000000000	0.00000000000000	0.00000000000000	0.00000000000000	
12.92161800000000	56.88388100000000	748.13563699999997	58.04046400000000	0.41518700000000	0.00000000000000	0.11458100000000	0.00000000000000	0.00000000000000	0.00000000000000	0.00000000000000	0.00000000000000	0.00000000000000	0.00000000000000	33.96485600000000	0.00000000000000	0.00000000000000	0.00000000000000	0.00000000000000	
12.92328100000000	56.39434300000000	751.19094700000005	58.46200600000000	0.41416400000000	0.00000000000000	0.11462200000000	0.00000000000000	0.00000000000000	0.00000000000000	0.00000000000000	0.00000000000000	0.00000000000000	0.00000000000000	34.27450700000000	0.00000000000000	0.00000000000000	0.00000000000000	0.00000000000000	
12.92495000000000	55.90417800000000	754.14892299999997	58.88171000000000	0.41317600000000	0.00000000000000	0.11466200000000	0.00000000000000	0.00000000000000	0.00000000000000	0.00000000000000	0.00000000000000	0.00000000000000	0.00000000000000	34.58429000000000	0.00000000000000	0.00000000000000	0.00000000000000	0.00000000000000	
12.92661600000000	55.41341500000000	757.00626299999999	59.29808000000000	0.41222100000000	0.00000000000000	0.11470000000000	0.00000000000000	0.00000000000000	0.00000000000000	0.00000000000000	0.00000000000000	0.00000000000000	0.00000000000000	34.89304500000000	0.00000000000000	0.00000000000000	0.00000000000000	0.00000000000000	
12.92828700000000	54.92206300000000	759.75978399999997	59.70960300000000	0.41130000000000	0.00000000000000	0.11473600000000	0.00000000000000	0.00000000000000	0.00000000000000	0.00000000000000	0.00000000000000	0.00000000000000	0.00000000000000	35.19960600000000	0.00000000000000	0.00000000000000	0.00000000000000	0.00000000000000	
12.92995300000000	54.43011700000000	762.40643200000000	60.11476500000000	0.41041000000000	0.00000000000000	0.11477100000000	0.00000000000000	0.00000000000000	0.00000000000000	0.00000000000000	0.00000000000000	0.00000000000000	0.00000000000000	35.50280600000000	0.00000000000000	0.00000000000000	0.00000000000000	0.00000000000000	
12.93162100000000	53.93755700000000	764.94330000000002	60.51205400000000	0.40955200000000	0.00000000000000	0.11480300000000	0.00000000000000	0.00000000000000	0.00000000000000	0.00000000000000	0.00000000000000	0.00000000000000	0.00000000000000	35.80147700000000	0.00000000000000	0.00000000000000	0.00000000000000	0.00000000000000	
12.93328400000000	53.44435500000000	767.36763900000005	60.89997500000000	0.40872300000000	0.00000000000000	0.11483300000000	0.00000000000000	0.00000000000000	0.00000000000000	0.00000000000000	0.00000000000000	0.00000000000000	0.00000000000000	36.09446400000000	0.00000000000000	0.00000000000000	0.00000000000000	0.00000000000000	
12.93494900000000	52.95047200000000	769.67687300000000	61.27705000000000	0.40792400000000	0.00000000000000	0.11486100000000	0.00000000000000	0.00000000000000	0.00000000000000	0.00000000000000	0.00000000000000	0.00000000000000	0.00000000000000	36.38062600000000	0.00000000000000	0.00000000000000	0.00000000000000	0.00000000000000	
